<svg width="392" height="221" viewBox="0 0 392 221" fill="none" xmlns="http://www.w3.org/2000/svg">
<path d="M0 134C0 119.979 0 105.958 0.348328 91.7653C2.00984 86.9854 3.1393 82.3156 4.6677 77.7802C11.6544 57.048 22.4239 38.8698 39.641 24.7765C54.736 12.4203 71.3824 3.97407 90.9975 1.93643C91.7242 1.86094 92.3351 0.67073 93 0C100.021 0 107.042 0 114.603 0.350963C117.732 1.45257 119.825 5.43932 123.385 1.97284C124.118 2.08012 124.537 2.13527 125.033 2.50007C126.094 2.84751 127.079 2.8853 128.426 2.97729C129.516 3.084 130.245 3.1365 131.116 3.37687C131.491 3.79656 131.769 3.9354 132.325 4.01956C132.557 4.05788 133.003 4.2071 133.253 4.42601C134.373 4.75307 135.244 4.86121 136.429 4.99664C137.158 5.07903 137.573 5.13414 138.13 5.37487C138.504 5.78743 138.78 5.9233 139.497 6.00024C148.415 9.67812 157.635 12.25 165.291 17.2273C176.13 24.2733 185.815 33.0941 195.954 41.4913C193.851 44.1449 191.795 46.4699 189.724 48.7808C186.128 52.7922 182.522 56.795 178.585 60.8844C174.486 64.632 170.722 68.2966 166.979 71.9806C167 72 166.961 71.9585 166.672 72.1019C165.283 72.8666 164.183 73.4879 162.931 73.8105C159.608 70.9217 159.539 65.115 153.983 65.0081C154 64.9978 153.987 65.0353 153.878 64.802C153.488 64.3829 153.206 64.1971 152.604 63.8795C148.713 61.2216 145.326 58.366 141.534 56.2312C130.426 49.9787 118.589 46.7893 105.653 47.8998C91.3961 49.1238 78.4412 53.9415 68.098 63.5598C49.8531 80.5261 43.7519 102.114 48.1252 126.348C50.1732 137.697 55.8258 147.907 64.4262 155.67C70.2588 160.934 77.4274 164.718 84.2008 169.374C84.9643 169.705 85.5255 169.825 86.0488 169.963C86.011 169.981 86.0495 169.906 86.1108 170.283C87.8089 171.099 89.4457 171.54 91.3202 172.019C91.5577 172.057 92.0144 172.21 92.2885 172.433C93.736 172.759 94.9094 172.861 96.4458 173C97.5319 173.107 98.2552 173.178 99.1109 173.617C104.16 174.309 109.073 174.703 113.995 174.876C114.652 174.899 115.349 173.805 116.415 173.155C117.854 173.034 118.905 172.988 120.148 173.186C121.235 173.03 122.129 172.629 123.234 172.145C123.443 172.062 123.884 171.971 124.296 171.982C126.467 171.658 128.433 171.716 129.945 170.915C134.447 168.53 139.183 166.306 143.058 163.091C147.765 159.185 151.688 154.334 156.113 149.605C156.959 148.592 157.619 147.843 158.329 147.145C173.249 132.479 188.166 117.809 203.104 103.162C211.353 95.0737 219.641 87.0258 228.293 78.9675C232.144 77.6407 235.614 76.3062 239.376 75.0885C240.789 76.4373 241.909 77.6693 243.138 79.1394C243.526 79.5767 243.805 79.7759 244.313 80.0488C244.829 80.3094 244.992 80.574 245.078 81.2668C246.103 82.0663 247.077 82.5151 248.026 82.9804C248 82.9969 248.027 82.9418 248.141 83.1751C248.542 83.5939 248.828 83.7793 249.421 84.0892C256.451 90.598 263.173 96.9823 270.062 103.525C268.541 104.879 267.326 105.96 265.721 107.042C264.798 107.855 264.264 108.666 263.678 109.554C263.625 109.629 263.472 109.733 263.125 109.57C262.195 110.299 261.612 111.191 260.928 112.348C260.251 113.087 259.675 113.561 258.673 114.025C251.77 114.092 251.266 114.677 252.885 120.375C245.898 127.861 239.026 135.015 232.241 142.25C231.304 143.249 230.796 144.649 229.737 145.907C228.097 146.966 226.673 147.849 225.547 149.02C219.568 155.241 213.687 161.557 207.725 167.794C203.137 172.593 198.48 177.326 193.54 182.194C190.398 184.778 187.656 187.362 184.725 189.709C179.911 193.563 174.975 197.263 169.728 201.025C168.582 201.705 167.798 202.386 166.939 203.296C166.675 203.816 166.409 203.977 165.847 204.076C165.353 204.285 165.138 204.492 164.754 204.833C164.524 204.903 164.055 205.006 163.663 205C161.175 205.835 159.077 206.672 156.984 207.519C149.304 210.624 141.825 214.435 133.901 216.669C122.789 219.801 111.255 220.664 99.655 220.058C97.7915 219.96 95.8861 220.666 94 221C91.9583 221 89.9167 221 87.7313 220.657C83.3254 218.983 79.0636 217.65 74.8008 216.321C53.7245 209.747 36.5268 197.668 22.7522 180.401C12.218 167.197 5.51346 152.356 1.93619 135.956C1.77111 135.199 0.666848 134.647 0 134Z" fill="#090947"/>
<path d="M227.913 78.9599C219.643 87.0258 211.355 95.0737 203.106 103.162C188.167 117.809 173.251 132.479 158.331 147.145C157.621 147.843 156.961 148.592 155.814 149.636C154.947 149.966 154.544 149.979 154.009 149.677C142.811 138.699 131.744 128.035 120.309 117.016C128.967 108.755 137.295 100.986 145.413 93.0033C151.051 87.4593 156.399 81.621 162.154 75.9431C162.616 75.978 162.801 75.984 163.365 75.9855C164.816 74.6402 165.889 73.2994 166.963 71.9585C166.963 71.9585 167.002 72 167.375 71.9863C174.638 71.4148 177.815 67.143 178.923 60.8013C182.524 56.795 186.129 52.7922 189.725 48.7808C191.797 46.4699 193.852 44.1449 196.273 41.3598C205.876 30.9241 216.347 22.3828 228.08 15.6038C234.691 11.784 241.976 9.13043 249.139 6.1526C249.888 5.94389 250.454 5.53405 251.205 5.03978C251.389 4.95535 251.793 4.97023 252.227 4.99786C259.474 3.97518 266.295 2.97087 273.088 1.80707C273.808 1.68372 274.368 0.624856 275.002 3.27915e-09C280.024 -9.96721e-07 285.046 -9.83477e-07 290.221 0.370136C293.878 1.15919 297.433 1.32605 300.876 2.03792C323.198 6.65359 343.006 16.496 358.932 32.788C366.582 40.6137 373.133 49.7972 378.801 59.1984C384.779 69.1129 389.053 80.0388 390.116 92.1069C390.336 92.6297 390.549 92.8642 391.129 93.2801C391.622 93.347 391.812 93.1735 392.002 93C392.002 94.3889 392.002 95.7778 391.65 97.6411C390.99 98.468 390.422 98.8145 390.414 99.1741C390.25 106.182 390.006 113.195 390.134 120.2C390.17 122.144 391.348 124.067 392.002 126C392.002 126.444 392.002 126.889 391.611 127.648C388.097 129.931 386.483 136.655 387.915 142.376C387.326 144.218 386.54 145.635 386.047 147.148C379.924 165.954 367.84 180.751 353.091 193.096C336.477 207.001 317.234 216.099 295.452 219.094C294.892 219.171 294.482 220.34 294.002 221C283.314 221 272.627 221 261.775 220.66C259.542 219.574 257.516 218.666 255.397 218.104C231.548 211.786 211.92 198.278 193.856 182.088C198.482 177.326 203.139 172.593 207.726 167.794C213.689 161.557 219.569 155.241 225.549 149.02C226.674 147.849 228.099 146.966 230.048 146.067C232.143 147.966 233.464 149.852 235.025 151.512C241.779 158.696 250.258 163.301 258.758 168.114C269.835 174.386 281.773 174.19 293.211 172.541C308.134 170.391 320.718 162.37 330.128 150.28C333.571 145.857 336.172 140.778 339.346 135.858C339.763 135.487 339.908 135.213 339.996 134.667C340.024 134.439 340.178 134.008 340.516 133.953C347.602 128.59 345.19 121.679 344.093 114.546C342.957 105.212 342.752 96.1237 340.59 87.5275C338.218 78.093 331.503 71.0935 324.243 64.5853C312.749 54.2808 298.979 49.7679 284.186 48.13C273.139 46.9069 263.165 51.4627 253.899 56.8561C247.136 60.7931 240.019 64.6795 235.625 72.0022C232.824 74.3272 230.369 76.6435 227.913 78.9599Z" fill="#4F54F8"/>
<path d="M163.663 205C157.123 211.72 147.94 213.812 139.308 217.016C136.051 218.224 132.716 219.224 129.708 220.659C118.313 221 106.625 221 94.4688 221C95.8862 220.666 97.7916 219.96 99.6551 220.058C111.255 220.664 122.79 219.801 133.901 216.669C141.825 214.435 149.304 210.624 156.984 207.519C159.077 206.672 161.175 205.835 163.663 205Z" fill="#090947"/>
<path d="M252.227 4.99787C256.066 3.54207 260.34 2.11392 264.308 0.342878C267.362 -8.9407e-07 270.723 -9.96594e-07 274.543 3.40589e-09C274.367 0.624856 273.807 1.68372 273.087 1.80707C266.294 2.97087 259.474 3.97519 252.227 4.99787Z" fill="#4F54F8"/>
<path d="M392.001 125.531C391.347 124.067 390.169 122.144 390.133 120.2C390.005 113.195 390.249 106.182 390.413 99.174C390.421 98.8144 390.989 98.4679 391.649 98.0576C392.001 107.021 392.001 116.042 392.001 125.531Z" fill="#4F54F8"/>
<path d="M392.001 131.6C391.339 132.634 390.347 133.151 390.076 133.922C389.242 136.301 388.683 138.777 387.935 141.605C386.483 136.655 388.096 129.931 391.611 127.981C392.001 129.067 392.001 130.133 392.001 131.6Z" fill="#4F54F8"/>
<path d="M122.555 0C122.932 0.398195 122.866 0.79639 122.934 1.55764C119.824 5.43932 117.731 1.45257 115.07 0.350963C117.37 0 119.74 0 122.555 0Z" fill="#090947"/>
<path d="M124.297 171.981C135.019 166.467 144.738 158.978 153.988 150.305C154.542 149.979 154.946 149.966 155.65 149.922C151.689 154.334 147.766 159.185 143.058 163.091C139.183 166.306 134.447 168.53 129.945 170.915C128.434 171.716 126.467 171.658 124.297 171.981Z" fill="#090947"/>
<path d="M178.584 60.8843C177.812 67.1429 174.635 71.4147 167.352 71.9667C170.721 68.2965 174.485 64.6319 178.584 60.8843Z" fill="#4F54F8"/>
<path d="M162.154 75.9429C159.27 72.5152 156.663 69.1163 154.012 65.3679C159.541 65.1148 159.61 70.9216 162.918 74.123C163.033 75.1528 163.01 75.5714 162.987 75.9899C162.802 75.9839 162.616 75.9779 162.154 75.9429Z" fill="#090947"/>
<path d="M235.623 72.0022C236.925 72.791 237.881 73.5884 238.96 74.6788C235.613 76.3062 232.144 77.6406 228.293 78.9675C230.367 76.6435 232.822 74.3272 235.623 72.0022Z" fill="#090947"/>
<path d="M99.1094 173.617C104.374 173.182 109.771 173.116 115.597 173.139C115.347 173.805 114.651 174.899 113.993 174.876C109.072 174.703 104.158 174.309 99.1094 173.617Z" fill="#090947"/>
<path d="M258.673 114.025C257.283 115.969 255.468 117.903 253.34 119.953C251.266 114.677 251.77 114.092 258.673 114.025Z" fill="#090947"/>
<path d="M163.361 75.9857C163.006 75.5717 163.029 75.1531 163.067 74.422C164.182 73.4881 165.281 72.8667 166.67 72.1021C165.886 73.2995 164.813 74.6404 163.361 75.9857Z" fill="#4F54F8"/>
<path d="M125.031 2.50024C125.894 2.21427 126.834 2.23795 127.918 2.59244C127.077 2.88548 126.093 2.84769 125.031 2.50024Z" fill="#090947"/>
<path d="M133.254 4.42586C133.939 4.24411 134.874 4.28126 135.962 4.64381C135.245 4.86106 134.374 4.75292 133.254 4.42586Z" fill="#090947"/>
<path d="M340.516 133.952C341.453 127.952 342.729 121.896 344.083 115.425C345.19 121.678 347.602 128.59 340.516 133.952Z" fill="#4F54F8"/>
<path d="M249.137 6.15255C249.433 5.64189 249.911 5.33236 250.704 5.07349C250.452 5.53399 249.885 5.94383 249.137 6.15255Z" fill="#090947"/>
</svg>
