<svg width="938" height="115" viewBox="0 0 938 115" fill="none" xmlns="http://www.w3.org/2000/svg">
<path d="M298.057 35.944C298.057 41.32 296.606 46.184 293.705 50.536C290.803 54.888 286.579 58.088 281.033 60.136L300.617 97H268.873L253.257 64.872H242.761V97H214.473V8.93595H268.361C274.675 8.93595 280.051 10.1733 284.489 12.6479C289.011 15.0373 292.382 18.3226 294.601 22.504C296.905 26.6 298.057 31.0799 298.057 35.944ZM269.257 37.096C269.257 34.792 268.489 32.872 266.953 31.336C265.417 29.8 263.539 29.032 261.321 29.032H242.761V45.288H261.321C263.539 45.288 265.417 44.52 266.953 42.984C268.489 41.3626 269.257 39.4 269.257 37.096Z" fill="white"/>
<path d="M344 27.88C356.373 27.88 365.802 30.7813 372.288 36.584C378.858 42.3866 382.144 51.2613 382.144 63.208V67.56H331.456C331.456 72.424 332.522 76.0933 334.656 78.568C336.874 81.0426 340.33 82.28 345.024 82.28C349.29 82.28 352.405 81.3839 354.368 79.5919C356.416 77.7999 357.44 75.4106 357.44 72.424H382.144C382.144 80.616 379.029 87.016 372.8 91.624C366.57 96.232 357.482 98.536 345.536 98.536C332.992 98.536 323.264 95.6346 316.352 89.832C309.44 83.944 305.984 75.0693 305.984 63.208C305.984 51.6026 309.354 42.8133 316.096 36.84C322.837 30.8666 332.138 27.88 344 27.88ZM345.024 44.136C337.002 44.136 332.522 47.9333 331.584 55.528H356.416C356.416 52.0293 355.392 49.256 353.344 47.208C351.381 45.16 348.608 44.136 345.024 44.136Z" fill="white"/>
<path d="M429.375 27.88C440.468 27.88 449.428 30.2693 456.255 35.048C463.167 39.7413 466.623 46.952 466.623 56.68H441.919C441.919 49 437.737 45.16 429.375 45.16C421.012 45.16 416.831 49.9813 416.831 59.624V66.92C416.831 76.4773 421.183 81.256 429.887 81.256C438.591 81.256 442.943 77.3306 442.943 69.4799H466.623C466.623 79.2933 463.167 86.5893 456.255 91.368C449.428 96.1466 440.468 98.536 429.375 98.536C417.513 98.536 408.212 95.5493 401.471 89.576C394.729 83.6026 391.359 74.8133 391.359 63.208C391.359 51.6026 394.729 42.8133 401.471 36.84C408.212 30.8666 417.513 27.88 429.375 27.88Z" fill="white"/>
<path d="M514.75 27.88C526.611 27.88 535.912 30.9093 542.654 36.968C549.48 42.9413 552.894 51.688 552.894 63.208C552.894 74.728 549.48 83.5173 542.654 89.576C535.912 95.5493 526.611 98.536 514.75 98.536C502.888 98.536 493.587 95.5493 486.846 89.576C480.104 83.6026 476.734 74.8133 476.734 63.208C476.734 51.6026 480.104 42.8133 486.846 36.84C493.587 30.8666 502.888 27.88 514.75 27.88ZM514.75 45.16C506.387 45.16 502.206 49.9813 502.206 59.624V66.92C502.206 76.4773 506.387 81.256 514.75 81.256C523.198 81.256 527.422 76.4773 527.422 66.92V59.624C527.422 49.9813 523.198 45.16 514.75 45.16Z" fill="white"/>
<path d="M611.773 27.88C619.623 27.88 625.511 30.056 629.437 34.408C633.362 38.76 635.325 45.032 635.325 53.224V97H609.853V56.296C609.853 53.3946 609.085 51.0906 607.549 49.384C606.098 47.592 604.007 46.696 601.277 46.696C598.119 46.696 595.559 47.72 593.597 49.768C591.634 51.816 590.653 54.3333 590.653 57.32V97H565.181V29.416H586.045L587.709 39.656C590.354 36.072 593.81 33.2133 598.077 31.0799C602.429 28.9466 606.994 27.88 611.773 27.88Z" fill="white"/>
<path d="M685.5 27.88C696.593 27.88 705.553 30.2693 712.38 35.048C719.292 39.7413 722.748 46.952 722.748 56.68H698.044C698.044 49 693.862 45.16 685.5 45.16C677.137 45.16 672.956 49.9813 672.956 59.624V66.92C672.956 76.4773 677.308 81.256 686.012 81.256C694.716 81.256 699.068 77.3306 699.068 69.4799H722.748C722.748 79.2933 719.292 86.5893 712.38 91.368C705.553 96.1466 696.593 98.536 685.5 98.536C673.638 98.536 664.337 95.5493 657.596 89.576C650.854 83.6026 647.484 74.8133 647.484 63.208C647.484 51.6026 650.854 42.8133 657.596 36.84C664.337 30.8666 673.638 27.88 685.5 27.88Z" fill="white"/>
<path d="M736.827 21.4799V4.19995H762.299V21.4799H736.827ZM736.827 97V29.416H762.299V97H736.827Z" fill="white"/>
<path d="M779.452 97V4.19995H804.924V97H779.452Z" fill="white"/>
<path d="M822.077 21.4799V4.19995H847.549V21.4799H822.077ZM822.077 97V29.416H847.549V97H822.077Z" fill="white"/>
<path d="M869.494 19.4C875.894 19.4 881.697 20.424 886.902 22.472C892.107 24.52 896.203 27.5067 899.19 31.432C902.262 35.272 903.798 39.9227 903.798 45.384C903.798 49.9067 902.902 53.4907 901.11 56.136C899.318 58.7814 896.63 61.384 893.046 63.944V64.456C897.739 67.1014 901.238 69.96 903.542 73.032C905.931 76.0187 907.126 79.944 907.126 84.808C907.126 93.0854 903.755 99.4427 897.014 103.88C890.273 108.317 881.099 110.536 869.494 110.536C857.889 110.536 848.758 108.317 842.102 103.88C835.531 99.4427 832.246 93.0854 832.246 84.808C832.246 79.944 833.398 76.0187 835.702 73.032C838.006 69.96 841.505 67.1014 846.198 64.456V63.944C842.614 61.384 839.926 58.7814 838.134 56.136C836.342 53.4907 835.446 49.9067 835.446 45.384C835.446 39.9227 836.939 35.272 839.926 31.432C842.913 27.5067 846.966 24.52 852.086 22.472C857.291 20.424 863.094 19.4 869.494 19.4ZM869.494 36.68C865.825 36.68 862.923 37.4907 860.79 39.112C858.742 40.648 857.718 43.08 857.718 46.408C857.718 49.6507 858.785 52.0827 860.918 53.704C863.137 55.24 865.995 56.008 869.494 56.008C872.993 56.008 875.894 55.24 878.198 53.704C880.502 52.0827 881.654 49.6507 881.654 46.408C881.654 43.08 880.545 40.648 878.326 39.112C876.107 37.4907 873.163 36.68 869.494 36.68ZM869.494 72.264C866.166 72.264 863.35 73.2027 861.046 75.08C858.827 76.872 857.718 79.432 857.718 82.76C857.718 86.088 858.785 88.6907 860.918 90.568C863.051 92.36 865.91 93.256 869.494 93.256C873.078 93.256 875.979 92.36 878.198 90.568C880.502 88.6907 881.654 86.088 881.654 82.76C881.654 79.432 880.459 76.872 878.07 75.08C875.766 73.2027 872.907 72.264 869.494 72.264Z" fill="#090947"/>
<path d="M0 69.7285C0 62.4326 0 55.1366 0.17771 47.7512C1.02538 45.2639 1.60161 42.8339 2.38137 40.4739C5.94584 29.6856 11.4402 20.2264 20.2241 12.8928C27.9252 6.46307 36.4179 2.06796 46.4251 1.00765C46.7959 0.968362 47.1076 0.349022 47.4468 0C51.0288 0 54.6107 0 58.4681 0.182628C60.0648 0.755861 61.1322 2.83041 62.9484 1.02659C63.3225 1.08242 63.5364 1.11111 63.7894 1.30094C64.3309 1.48174 64.8333 1.5014 65.5204 1.54927C66.0766 1.60479 66.4483 1.63212 66.893 1.7572C67.0841 1.97559 67.2258 2.04783 67.5096 2.09163C67.628 2.11157 67.8556 2.18922 67.9829 2.30313C68.5545 2.47331 68.9989 2.52959 69.6034 2.60006C69.9754 2.64294 70.1871 2.67161 70.4715 2.79688C70.6621 3.01156 70.8029 3.08226 71.1685 3.1223C75.7183 5.03613 80.4223 6.37443 84.3285 8.96442C89.8582 12.6309 94.7993 17.2209 99.9717 21.5905C98.899 22.9713 97.8501 24.1811 96.7933 25.3837C94.9588 27.4711 93.1193 29.5539 91.1106 31.6819C89.0191 33.632 87.099 35.539 85.1895 37.456C85.2002 37.4661 85.1803 37.4445 85.0327 37.5191C84.3242 37.917 83.7631 38.2403 83.1241 38.4082C81.4291 36.905 81.3939 33.8833 78.5593 33.8277C78.5679 33.8224 78.5614 33.8419 78.5058 33.7205C78.3064 33.5024 78.1626 33.4057 77.8559 33.2405C75.8704 31.8574 74.1426 30.3714 72.2077 29.2606C66.5407 26.007 60.5016 24.3474 53.9023 24.9252C46.6285 25.5621 40.0192 28.0691 34.7423 33.0741C25.4341 41.9027 22.3214 53.1361 24.5526 65.7469C25.5974 71.6525 28.4812 76.9654 32.869 81.0046C35.8447 83.7438 39.502 85.7127 42.9576 88.136C43.3471 88.3081 43.6334 88.3704 43.9004 88.4421C43.8812 88.4516 43.9008 88.4128 43.932 88.6086C44.7984 89.0336 45.6335 89.2628 46.5898 89.5121C46.711 89.5321 46.9439 89.6114 47.0838 89.7276C47.8223 89.8971 48.421 89.9503 49.2048 90.0224C49.7589 90.0781 50.1279 90.1151 50.5645 90.3434C53.1402 90.7038 55.6471 90.9087 58.158 90.9988C58.4934 91.0109 58.8488 90.4417 59.3929 90.1034C60.1268 90.0405 60.6629 90.0161 61.2971 90.1196C61.8517 90.0385 62.3081 89.8295 62.8714 89.5775C62.9783 89.5344 63.2034 89.487 63.4137 89.4926C64.521 89.3242 65.5241 89.3543 66.2953 88.9377C68.5921 87.6968 71.0083 86.5391 72.9852 84.8663C75.387 82.834 77.3884 80.3094 79.646 77.8485C80.0776 77.3217 80.4141 76.9316 80.7765 76.5684C88.3885 68.9369 95.9984 61.3033 103.62 53.6815C107.828 49.4728 112.057 45.2849 116.471 41.0917C118.435 40.4013 120.206 39.7068 122.125 39.0732C122.846 39.7751 123.417 40.4161 124.044 41.1811C124.242 41.4087 124.385 41.5124 124.644 41.6544C124.907 41.79 124.99 41.9276 125.034 42.2882C125.557 42.7042 126.054 42.9377 126.538 43.1799C126.525 43.1884 126.538 43.1597 126.597 43.2811C126.801 43.4991 126.947 43.5956 127.25 43.7568C130.836 47.1437 134.266 50.4659 137.78 53.8705C137.004 54.575 136.384 55.1378 135.566 55.7008C135.095 56.1234 134.823 56.5458 134.524 57.0075C134.496 57.0469 134.418 57.1008 134.242 57.0162C133.767 57.3956 133.469 57.8595 133.12 58.4617C132.775 58.8464 132.481 59.0927 131.97 59.3344C128.448 59.369 128.191 59.6734 129.017 62.6386C125.452 66.5338 121.946 70.2566 118.485 74.0216C118.007 74.5412 117.748 75.2697 117.207 75.9243C116.371 76.4756 115.644 76.9353 115.07 77.5445C112.019 80.7815 109.019 84.0679 105.977 87.3138C103.637 89.811 101.261 92.2736 98.7402 94.8069C97.1374 96.1515 95.7386 97.4962 94.243 98.7175C91.7872 100.723 89.2687 102.648 86.5917 104.606C86.0071 104.959 85.6073 105.314 85.169 105.788C85.0346 106.058 84.8986 106.142 84.6121 106.193C84.3601 106.302 84.2501 106.41 84.0543 106.587C83.9371 106.624 83.6977 106.677 83.4978 106.674C82.2285 107.109 81.1582 107.544 80.09 107.985C76.1722 109.601 72.3564 111.584 68.3135 112.746C62.6448 114.376 56.7603 114.825 50.8421 114.51C49.8913 114.459 48.9192 114.826 47.957 115C46.9154 115 45.8737 115 44.7588 114.822C42.511 113.95 40.3367 113.257 38.1619 112.565C27.4092 109.145 18.6352 102.859 11.6077 93.874C6.23338 87.0028 2.81286 79.2801 0.987808 70.7464C0.903584 70.3526 0.340213 70.0654 0 69.7285Z" fill="#090947"/>
<path d="M116.287 41.0877C112.068 45.2849 107.839 49.4728 103.631 53.6815C96.0093 61.3033 88.3994 68.9369 80.7874 76.5684C80.425 76.9316 80.0885 77.3217 79.5035 77.8646C79.0611 78.0366 78.8553 78.0431 78.5824 77.8861C72.8693 72.1735 67.2231 66.6244 61.3892 60.8908C65.8066 56.5921 70.0555 52.5494 74.1971 48.3954C77.0734 45.5105 79.802 42.4725 82.7378 39.5179C82.9736 39.5361 83.0682 39.5392 83.3555 39.54C84.0959 38.8399 84.6435 38.1422 85.1912 37.4445C85.1912 37.4445 85.2111 37.4661 85.4014 37.4589C89.1068 37.1615 90.7277 34.9387 91.2929 31.6387C93.1302 29.5539 94.9697 27.4711 96.8042 25.3837C97.861 24.1811 98.9098 22.9713 100.145 21.5221C105.044 16.0917 110.386 11.6472 116.372 8.11964C119.745 6.13197 123.461 4.75113 127.116 3.20158C127.498 3.09297 127.787 2.87971 128.17 2.62251C128.264 2.57858 128.47 2.58632 128.692 2.6007C132.389 2.06854 135.869 1.54593 139.334 0.940328C139.702 0.876145 139.987 0.325151 140.311 1.70667e-09C142.873 -5.18655e-07 145.435 -5.06639e-07 148.075 0.192605C149.941 0.603196 151.755 0.690026 153.511 1.06046C164.9 3.46227 175.005 8.58389 183.13 17.0616C187.033 21.1338 190.375 25.9126 193.267 30.8046C196.317 35.9637 198.497 41.6492 199.04 47.9289C199.152 48.201 199.261 48.323 199.557 48.5394C199.808 48.5742 199.905 48.4839 200.002 48.3937C200.002 49.1164 200.002 49.8391 199.822 50.8087C199.486 51.239 199.196 51.4193 199.192 51.6064C199.108 55.2533 198.984 58.9023 199.049 62.5475C199.067 63.5591 199.668 64.5599 200.002 65.5656C200.002 65.7969 200.002 66.0282 199.802 66.4232C198.01 67.611 197.186 71.1099 197.917 74.0868C197.616 75.0453 197.215 75.783 196.964 76.5704C193.84 86.3562 187.675 94.0561 180.15 100.48C171.674 107.716 161.856 112.45 150.744 114.008C150.458 114.048 150.249 114.657 150.004 115C144.551 115 139.099 115 133.563 114.823C132.423 114.258 131.39 113.785 130.309 113.493C118.142 110.205 108.128 103.176 98.9116 94.7516C101.272 92.2736 103.648 89.811 105.988 87.3138C109.03 84.0679 112.03 80.7815 115.081 77.5445C115.655 76.9353 116.382 76.4756 117.376 76.0079C118.445 76.996 119.119 77.9772 119.915 78.8411C123.361 82.5794 127.687 84.9756 132.023 87.4799C137.675 90.7437 143.765 90.6417 149.601 89.7839C157.214 88.6648 163.634 84.4912 168.435 78.2001C170.191 75.8983 171.518 73.2557 173.138 70.6955C173.351 70.5025 173.424 70.3596 173.47 70.0755C173.484 69.9571 173.562 69.7324 173.734 69.7038C177.35 66.9136 176.119 63.3169 175.56 59.6056C174.98 54.7483 174.875 50.0191 173.773 45.546C172.562 40.6366 169.136 36.9943 165.433 33.6077C159.569 28.2456 152.544 25.8973 144.996 25.045C139.36 24.4086 134.271 26.7792 129.544 29.5857C126.094 31.6344 122.463 33.6567 120.221 37.4672C118.792 38.677 117.54 39.8824 116.287 41.0877Z" fill="#4F54F8"/>
<path d="M83.5195 106.674C80.1829 110.171 75.4979 111.26 71.094 112.927C69.4323 113.556 67.7309 114.076 66.1964 114.823C60.3825 115 54.4197 115 48.2178 115C48.941 114.826 49.9131 114.459 50.8638 114.51C56.782 114.825 62.6665 114.376 68.3352 112.747C72.3781 111.584 76.1939 109.601 80.1117 107.985C81.1799 107.544 82.2502 107.109 83.5195 106.674Z" fill="#090947"/>
<path d="M128.687 2.6007C130.646 1.84316 132.826 1.1 134.85 0.178421C136.409 -4.61936e-07 138.124 -5.18589e-07 140.072 1.77261e-09C139.982 0.325151 139.697 0.876145 139.329 0.940328C135.864 1.54593 132.384 2.06853 128.687 2.6007Z" fill="#4F54F8"/>
<path d="M199.994 65.3221C199.661 64.5603 199.06 63.5595 199.041 62.5479C198.976 58.9027 199.101 55.2537 199.184 51.6068C199.188 51.4197 199.478 51.2394 199.815 51.0259C199.994 55.69 199.994 60.3841 199.994 65.3221Z" fill="#4F54F8"/>
<path d="M199.999 68.4797C199.661 69.0174 199.155 69.2868 199.017 69.6879C198.591 70.9258 198.306 72.214 197.925 73.686C197.184 71.1099 198.007 67.611 199.8 66.5967C199.999 67.1614 199.999 67.7165 199.999 68.4797Z" fill="#4F54F8"/>
<path d="M62.5184 0C62.711 0.207205 62.677 0.414411 62.712 0.810538C61.125 2.83041 60.0576 0.755861 58.7 0.182628C59.873 0 61.0824 0 62.5184 0Z" fill="#090947"/>
<path d="M63.4032 89.492C68.8736 86.6227 73.8319 82.7256 78.5509 78.2124C78.8339 78.0425 79.0397 78.036 79.399 78.0133C77.3779 80.3088 75.3765 82.8333 72.9747 84.8657C70.9978 86.5385 68.5816 87.6962 66.2848 88.9371C65.5137 89.3537 64.5105 89.3236 63.4032 89.492Z" fill="#090947"/>
<path d="M91.0915 31.6821C90.6976 34.9389 89.0767 37.1617 85.3607 37.449C87.0799 35.5392 89 33.6322 91.0915 31.6821Z" fill="#4F54F8"/>
<path d="M82.7268 39.5183C81.2555 37.7346 79.9253 35.9659 78.5728 34.0154C81.3938 33.8837 81.429 36.9053 83.1165 38.5712C83.1752 39.1071 83.1635 39.3249 83.1518 39.5427C83.0572 39.5396 82.9626 39.5365 82.7268 39.5183Z" fill="#090947"/>
<path d="M120.209 37.4673C120.873 37.8778 121.361 38.2927 121.912 38.8601C120.204 39.7069 118.434 40.4013 116.469 41.0918C117.527 39.8824 118.78 38.6771 120.209 37.4673Z" fill="#090947"/>
<path d="M50.5851 90.344C53.2709 90.118 56.0243 90.0835 58.9966 90.0956C58.8695 90.4423 58.5141 91.0114 58.1787 90.9994C55.6678 90.9092 53.1609 90.7043 50.5851 90.344Z" fill="#090947"/>
<path d="M131.968 59.3351C131.259 60.3463 130.332 61.3527 129.247 62.4197C128.188 59.6741 128.446 59.3697 131.968 59.3351Z" fill="#090947"/>
<path d="M83.3344 39.5407C83.1534 39.3252 83.1651 39.1074 83.1843 38.727C83.7529 38.241 84.3139 37.9177 85.0225 37.5198C84.6224 38.1429 84.0748 38.8406 83.3344 39.5407Z" fill="#4F54F8"/>
<path d="M63.8154 1.30026C64.2558 1.15145 64.7352 1.16377 65.2881 1.34823C64.8592 1.50072 64.3569 1.48105 63.8154 1.30026Z" fill="#090947"/>
<path d="M67.9847 2.30287C68.3342 2.20829 68.8111 2.22762 69.3665 2.41628C69.0007 2.52933 68.5564 2.47305 67.9847 2.30287Z" fill="#090947"/>
<path d="M173.721 69.7046C174.199 66.582 174.85 63.4309 175.541 60.0635C176.105 63.3176 177.336 66.9143 173.721 69.7046Z" fill="#4F54F8"/>
<path d="M127.109 3.2014C127.26 2.93567 127.504 2.7746 127.908 2.63989C127.78 2.87952 127.49 3.09279 127.109 3.2014Z" fill="#090947"/>
<path d="M899.494 7.40002C905.894 7.40002 911.697 8.42402 916.902 10.472C922.107 12.52 926.203 15.5067 929.19 19.432C932.262 23.272 933.798 27.9227 933.798 33.384C933.798 37.9067 932.902 41.4907 931.11 44.136C929.318 46.7814 926.63 49.384 923.046 51.944V52.456C927.739 55.1014 931.238 57.96 933.542 61.032C935.931 64.0187 937.126 67.944 937.126 72.808C937.126 81.0854 933.755 87.4427 927.014 91.88C920.273 96.3174 911.099 98.536 899.494 98.536C887.889 98.536 878.758 96.3174 872.102 91.88C865.531 87.4427 862.246 81.0854 862.246 72.808C862.246 67.944 863.398 64.0187 865.702 61.032C868.006 57.96 871.505 55.1014 876.198 52.456V51.944C872.614 49.384 869.926 46.7814 868.134 44.136C866.342 41.4907 865.446 37.9067 865.446 33.384C865.446 27.9227 866.939 23.272 869.926 19.432C872.913 15.5067 876.966 12.52 882.086 10.472C887.291 8.42402 893.094 7.40002 899.494 7.40002ZM899.494 24.68C895.825 24.68 892.923 25.4907 890.79 27.112C888.742 28.648 887.718 31.08 887.718 34.408C887.718 37.6507 888.785 40.0827 890.918 41.704C893.137 43.24 895.995 44.008 899.494 44.008C902.993 44.008 905.894 43.24 908.198 41.704C910.502 40.0827 911.654 37.6507 911.654 34.408C911.654 31.08 910.545 28.648 908.326 27.112C906.107 25.4907 903.163 24.68 899.494 24.68ZM899.494 60.264C896.166 60.264 893.35 61.2027 891.046 63.08C888.827 64.872 887.718 67.432 887.718 70.76C887.718 74.088 888.785 76.6907 890.918 78.568C893.051 80.36 895.91 81.256 899.494 81.256C903.078 81.256 905.979 80.36 908.198 78.568C910.502 76.6907 911.654 74.088 911.654 70.76C911.654 67.432 910.459 64.872 908.07 63.08C905.766 61.2027 902.907 60.264 899.494 60.264Z" fill="#4F54F8"/>
</svg>
